{"title":"The.Noite.2018.06.11.720p.WEB-DL.x264-Skylane77","magnet":"magnet:?xt=urn:btih:552415bd238158b54600d3ae5985965b18b66c4a&dn=The.Noite.2018.06.11.720p.WEB-DL.x264-Skylane77&tr=udp%3A%2F%2Ftracker.leechers-paradise.org%3A6969&tr=udp%3A%2F%2Fzer0day.ch%3A1337&tr=udp%3A%2F%2Fopen.demonii.com%3A1337&tr=udp%3A%2F%2Ftracker.coppersurfer.tk%3A6969&tr=udp%3A%2F%2Fexodus.desync.com%3A6969","uploader":"beechbaron77","categoryP":"video","categoryS":"tv_shows","size":"604338081","seeders":"0","leechers":"0","description":"Dudu Camargo e Barbara Jankavisk\r\n\r\nEntrevista com o apresentador Eduardo Ferreira de Almeida Camargo, mais conhecido como Dudu Camargo, &#xE2;ncora do telejornal Primeiro Impacto; e a modelo Barbara Jankavisk, a &quot;Barbie humana&quot; Brasileira; Ultra a Rigor toca &quot;Mary Had a Little Lamb&quot;.\r\n\r\n--\r\nGeneral\r\nComplete name: The.Noite.com.Danilo.Gentili.2018.06.11.720p.WEB-DL.x264-Skylane77.mp4\r\nFormat: MPEG-4\r\nFormat profile: Base Media\r\nCodec ID: isom (isom/iso2/avc1/mp41)\r\nFile size: 576 MiB\r\nDuration: 58 min 14 s\r\nOverall bit rate: 1 383 kb/s\r\nWriting application: Lavf58.12.100\r\n\r\nVideo\r\nID: 1\r\nFormat: AVC\r\nFormat/Info: Advanced Video Codec\r\nFormat profile: Main@L3.1\r\nFormat settings: CABAC / 3 Ref Frames\r\nFormat settings, CABAC: Yes\r\nFormat settings, ReFrames: 3 frames\r\nCodec ID: avc1\r\nCodec ID/Info: Advanced Video Coding\r\nDuration: 58 min 14 s\r\nBit rate: 1 249 kb/s\r\nWidth: 1 280 pixels\r\nHeight: 720 pixels\r\nDisplay aspect ratio: 16:9\r\nFrame rate mode: Constant\r\nFrame rate: 30.000 FPS\r\nColor space: YUV\r\nChroma subsampling: 4:2:0\r\nBit depth: 8 bits\r\nScan type: Progressive\r\nBits/(Pixel*Frame): 0.045\r\nStream size: 520 MiB (90%)\r\nColor range: Limited\r\nColor primaries: BT.709\r\nTransfer characteristics: BT.709\r\nMatrix coefficients: BT.709\r\n\r\nAudio\r\nID: 2\r\nFormat: AAC\r\nFormat/Info: Advanced Audio Codec\r\nFormat profile: LC\r\nCodec ID: mp4a-40-2\r\nDuration: 58 min 14 s\r\nBit rate mode: Constant\r\nBit rate: 126 kb/s\r\nChannel(s): 2 channels\r\nChannel positions: Front: L R\r\nSampling rate: 44.1 kHz\r\nFrame rate: 43.066 FPS (1024 SPF)\r\nCompression mode: Lossy\r\nStream size: 52.3 MiB (9%)\r\nDefault: Yes\r\nAlternate group: 1","last_updated":"2018-06-14T12:13:15.576Z","parsed":{"xt":"urn:btih:552415bd238158b54600d3ae5985965b18b66c4a","dn":"The.Noite.2018.06.11.720p.WEB-DL.x264-Skylane77","tr":["udp://exodus.desync.com:6969","udp://open.demonii.com:1337","udp://tracker.coppersurfer.tk:6969","udp://tracker.leechers-paradise.org:6969","udp://zer0day.ch:1337"],"infoHash":"552415bd238158b54600d3ae5985965b18b66c4a","infoHashBuffer":{"type":"Buffer","data":[85,36,21,189,35,129,88,181,70,0,211,174,89,133,150,91,24,182,108,74]},"name":"The.Noite.2018.06.11.720p.WEB-DL.x264-Skylane77","announce":["udp://exodus.desync.com:6969","udp://open.demonii.com:1337","udp://tracker.coppersurfer.tk:6969","udp://tracker.leechers-paradise.org:6969","udp://zer0day.ch:1337"],"urlList":[]}}